# xmcd CD database file
#
# Track frame offsets:
#	150
#	22832
#	46872
#	62927
#
# Disc length: 1138 seconds
#
# Revision: 0
# Processed by: cddbd v1.5.1PL0 Copyright (c) Steve Scherf et al.
# Submitted via: CDex 1.51
#
DISCID=29047004
DTITLE=加藤 ミリヤ - ジョウネツ
DYEAR=2005
DGENRE=R&B
TTITLE0=ジョウネツ
TTITLE1=ONE DAY 〜夜空 Remix〜 加藤ミリヤ m-flo
TTITLE2=My sorrow
TTITLE3=ジョウネツ 〜take 2 Remix〜
EXTD=YEAR: 2005
EXTT0=
EXTT1=
EXTT2=
EXTT3=
PLAYORDER=
